<svg xmlns="http://www.w3.org/2000/svg" width="100" height="100" viewBox="0 0 100 100">
    <defs>
        <style>
            .cls-2{fill:#57bad4}.cls-3{fill:#3e3a39}
        </style>
    </defs>
    <g id="img100" transform="translate(-80 -1072)">
        <circle id="타원_24" data-name="타원 24" cx="50" cy="50" r="50" transform="translate(80 1072)" style="fill:#f7f7f7"/>
        <g id="그룹_3984" data-name="그룹 3984" transform="translate(-418.269 862.828)">
            <g id="그룹_3980" data-name="그룹 3980" transform="translate(536.007 235.099)">
                <g id="그룹_3978" data-name="그룹 3978">
                    <path id="패스_786" data-name="패스 786" class="cls-2" d="M561.077 252.127a6.2 6.2 0 1 1 6.2-6.2 6.2 6.2 0 0 1-6.2 6.2zm0-9.935a3.739 3.739 0 1 0 3.74 3.739 3.743 3.743 0 0 0-3.74-3.739z" transform="translate(-546.315 -239.734)"/>
                    <path id="패스_787" data-name="패스 787" class="cls-2" d="M570.978 277.417a1.229 1.229 0 0 1-1.229-1.229v-9.836a3.337 3.337 0 0 0-3.334-3.334h-17.941a3.337 3.337 0 0 0-3.334 3.334v9.836a1.229 1.229 0 0 1-2.458 0v-9.836a5.8 5.8 0 0 1 5.792-5.791h17.942a5.8 5.8 0 0 1 5.791 5.791v9.836a1.229 1.229 0 0 1-1.229 1.229z" transform="translate(-542.682 -245.937)"/>
                </g>
                <g id="그룹_3979" data-name="그룹 3979" transform="translate(5.612 22.648)">
                    <path id="패스_788" data-name="패스 788" class="cls-2" d="M551.9 287.14a1.229 1.229 0 0 1-1.229-1.229v-12.694a1.229 1.229 0 0 1 2.458 0v12.694a1.229 1.229 0 0 1-1.229 1.229z" transform="translate(-550.674 -271.988)"/>
                    <path id="패스_789" data-name="패스 789" class="cls-2" d="M574.467 287.14a1.229 1.229 0 0 1-1.229-1.229v-12.694a1.229 1.229 0 1 1 2.458 0v12.694a1.229 1.229 0 0 1-1.229 1.229z" transform="translate(-557.394 -271.988)"/>
                </g>
            </g>
            <g id="그룹_3983" data-name="그룹 3983" transform="translate(520.269 224.172)">
                <g id="그룹_3982" data-name="그룹 3982">
                    <g id="그룹_3981" data-name="그룹 3981">
                        <path id="패스_790" data-name="패스 790" class="cls-3" d="M566.788 231.73a1.224 1.224 0 0 1-.78-.279l-5.413-4.457-5.327 4.386a1.229 1.229 0 0 1-1.562-1.9l6.109-5.03a1.228 1.228 0 0 1 1.562 0l6.195 5.1a1.229 1.229 0 0 1-.782 2.177z" transform="translate(-530.094 -224.172)"/>
                        <path id="패스_791" data-name="패스 791" class="cls-3" d="M580.04 300.616H521.5a1.229 1.229 0 0 1-1.229-1.229v-41.578a1.228 1.228 0 0 1 .448-.949l5.439-4.479a1.229 1.229 0 0 1 1.562 1.9l-4.992 4.11v39.77h56.085v-39.77l-5.051-4.159a1.229 1.229 0 0 1 1.562-1.9l5.5 4.528a1.228 1.228 0 0 1 .448.949v41.579a1.229 1.229 0 0 1-1.232 1.228z" transform="translate(-520.269 -232.476)"/>
                        <path id="패스_792" data-name="패스 792" class="cls-3" d="M580.04 309.949a1.226 1.226 0 0 1-.781-.28l-28.489-23.46-28.49 23.46a1.229 1.229 0 0 1-1.562-1.9l29.272-24.1a1.226 1.226 0 0 1 1.562 0l29.271 24.1a1.229 1.229 0 0 1-.782 2.177z" transform="translate(-520.269 -241.808)"/>
                    </g>
                    <path id="패스_793" data-name="패스 793" class="cls-3" d="M543.265 284.13a1.225 1.225 0 0 1-.9-.388L520.6 260.571a1.229 1.229 0 0 1 1.791-1.682l21.767 23.171a1.229 1.229 0 0 1-.9 2.07z" transform="translate(-520.269 -234.396)"/>
                    <path id="패스_794" data-name="패스 794" class="cls-3" d="M573.872 284.13a1.229 1.229 0 0 1-.9-2.07l21.767-23.171a1.229 1.229 0 0 1 1.791 1.682l-21.767 23.171a1.225 1.225 0 0 1-.891.388z" transform="translate(-535.868 -234.396)"/>
                </g>
                <path id="패스_795" data-name="패스 795" class="cls-3" d="M576.865 258.967a1.228 1.228 0 0 1-1.229-1.229v-23.112h-45.055v23.113a1.229 1.229 0 1 1-2.458 0V233.4a1.229 1.229 0 0 1 1.229-1.229h47.513a1.229 1.229 0 0 1 1.229 1.229v24.341a1.228 1.228 0 0 1-1.229 1.226z" transform="translate(-522.608 -226.553)"/>
            </g>
        </g>
    </g>
</svg>
